<?xml version="1.0" encoding="utf-8"?>
<!-- Generator: Adobe Illustrator 24.0.1, SVG Export Plug-In . SVG Version: 6.00 Build 0)  -->
<svg version="1.1" id="Capa_1" xmlns="http://www.w3.org/2000/svg" xmlns:xlink="http://www.w3.org/1999/xlink" x="0px" y="0px"
	 viewBox="0 0 148 124" style="enable-background:new 0 0 148 124;" xml:space="preserve">
<style type="text/css">
	.st0{fill:#312C29;}
	.st1{fill:#FFFFFF;}
	.st2{fill:#FFFFFF;stroke:#312C29;stroke-width:2;stroke-miterlimit:10;}
	.st3{fill:#C9135D;}
</style>
<g>
	<path class="st0" d="M122.7,112.8H25.3c-2.7,0-4.8-1.8-4.8-4.1V42.8c0-2.3,2.2-4.1,4.8-4.1h97.4c2.7,0,4.8,1.8,4.8,4.1v65.9
		C127.5,111,125.3,112.8,122.7,112.8z M119.4,107.2H28.6c-0.9,0-1.6-0.6-1.6-1.3V45.5c0-0.7,0.7-1.3,1.6-1.3h90.9
		c0.9,0,1.6,0.6,1.6,1.3v60.4C121,106.6,120.3,107.2,119.4,107.2z M30.1,104.6h87.8V46.9H30.1V104.6z"/>
	<g id="XMLID_127_">
		<g>
			<path class="st1" d="M124.4,42.8v65.9c0,0.8-0.8,1.4-1.7,1.4H25.3c-0.9,0-1.7-0.6-1.7-1.4V42.8c0-0.8,0.8-1.4,1.7-1.4h97.4
				C123.6,41.3,124.4,42,124.4,42.8z"/>
		</g>
		<g>
		</g>
	</g>
</g>
<g>
	<path class="st0" d="M117.6,107.9H30.4c-2.4,0-4.3-1.6-4.3-3.6V47.5c0-2,1.9-3.6,4.3-3.6h87.2c2.4,0,4.3,1.6,4.3,3.6v56.9
		C122,106.3,120,107.9,117.6,107.9z M114.7,103.1H33.3c-0.8,0-1.4-0.5-1.4-1.2V49.9c0-0.6,0.6-1.2,1.4-1.2h81.4
		c0.8,0,1.4,0.5,1.4,1.2V102C116.1,102.6,115.5,103.1,114.7,103.1z M34.7,100.8h78.6V51H34.7V100.8z"/>
	<g id="XMLID_126_">
		<g>
			<path class="st1" d="M119.2,47.5v56.9c0,0.7-0.7,1.3-1.5,1.3H30.4c-0.8,0-1.5-0.6-1.5-1.3V47.5c0-0.7,0.7-1.3,1.5-1.3h87.2
				C118.5,46.2,119.2,46.8,119.2,47.5z"/>
		</g>
		<g>
		</g>
	</g>
</g>
<path class="st2" d="M101.5,49.9c-11.2,0-20.2-9.1-20.2-20.2s9.1-20.2,20.2-20.2s20.2,9.1,20.2,20.2S112.7,49.9,101.5,49.9"/>
<path class="st0" d="M112.7,18.8c-0.2,0-0.4,0.1-0.6,0.2L97.9,33.3l-8.2-8.2c-0.3-0.3-0.8-0.3-1.2,0l-3.3,3.3
	c-0.3,0.3-0.3,0.8,0,1.2l12.1,12.1c0.3,0.3,0.8,0.3,1.2,0c0,0,0,0,0,0l18.2-18.2c0.3-0.3,0.3-0.8,0-1.2l-3.3-3.3
	C113.1,18.9,112.9,18.8,112.7,18.8L112.7,18.8z"/>
<g id="XMLID_123_">
	<g>
		<path class="st3" d="M114.9,22.9l-17,17L86.9,29l2.2-2.2l8.2,8.2c0.3,0.3,0.8,0.3,1.2,0l14.3-14.3L114.9,22.9z"/>
	</g>
	<g>
	</g>
</g>
<g>
	<g>
		<defs>
			<polyline id="SVGID_1_" points="94.6,52 49.4,52 49.4,99.9 94.6,99.9 94.6,52 			"/>
		</defs>
		<clipPath id="SVGID_2_">
			<use xlink:href="#SVGID_1_"  style="overflow:visible;"/>
		</clipPath>
		<g transform="matrix(1 0 0 1 0 -3.814697e-06)" style="clip-path:url(#SVGID_2_);">
			
				<image style="overflow:visible;" width="925" height="979" xlink:href="4C12B880.jpg"  transform="matrix(2.455286e-02 0 0 2.455286e-02 49.3404 51.9356)">
			</image>
		</g>
		<g transform="matrix(1 0 0 1 0 -3.814697e-06)" style="clip-path:url(#SVGID_2_);">
			
				<image style="overflow:visible;" width="924" height="979" xlink:href="4C12B881.jpg"  transform="matrix(2.455286e-02 0 0 2.455286e-02 72.0027 51.9356)">
			</image>
		</g>
		<g style="clip-path:url(#SVGID_2_);">
			
				<image style="overflow:visible;" width="925" height="979" xlink:href="4C12B887.jpg"  transform="matrix(2.455286e-02 0 0 2.455286e-02 49.3404 75.9238)">
			</image>
		</g>
		<g style="clip-path:url(#SVGID_2_);">
			
				<image style="overflow:visible;" width="924" height="979" xlink:href="4C12B882.jpg"  transform="matrix(2.455286e-02 0 0 2.455286e-02 72.0027 75.9238)">
			</image>
		</g>
	</g>
</g>
</svg>
