<?xml version="1.0" encoding="utf-8"?>
<!-- Generator: Adobe Illustrator 24.0.1, SVG Export Plug-In . SVG Version: 6.00 Build 0)  -->
<svg version="1.1" id="Capa_1" xmlns="http://www.w3.org/2000/svg" xmlns:xlink="http://www.w3.org/1999/xlink" x="0px" y="0px"
	 viewBox="0 0 148 124" style="enable-background:new 0 0 148 124;" xml:space="preserve">
<style type="text/css">
	.st0{fill:#312C29;}
	.st1{fill:#FB6520;}
	.st2{fill:#FFFFFF;}
	.st3{fill:#FFFFFF;stroke:#312C29;stroke-width:3;stroke-miterlimit:10;}
	.st4{fill:none;}
	.st5{font-family:'FuturaBT-BoldCondensed';}
	.st6{font-size:32px;}
	.st7{fill:#C9135D;stroke:#312C29;stroke-width:3;stroke-miterlimit:10;}
</style>
<g>
	<path class="st0" d="M119.9,114.3H26.1c-2.6,0-4.6-1.8-4.6-4.1V44.3c0-2.3,2.1-4.1,4.6-4.1h93.8c2.6,0,4.6,1.8,4.6,4.1v65.9
		C124.5,112.5,122.4,114.3,119.9,114.3z M116.7,108.8H29.3c-0.8,0-1.5-0.6-1.5-1.3V47.1c0-0.7,0.7-1.3,1.5-1.3h87.5
		c0.8,0,1.5,0.6,1.5,1.3v60.4C118.2,108.2,117.6,108.8,116.7,108.8z M30.8,106.1h84.5V48.4H30.8V106.1z"/>
	<g id="XMLID_121_">
		<g>
			<path class="st1" d="M121.5,44.3v65.9c0,0.8-0.7,1.4-1.6,1.4H26.1c-0.9,0-1.6-0.7-1.6-1.4V44.3c0-0.8,0.7-1.4,1.6-1.4h93.8
				C120.8,42.8,121.5,43.5,121.5,44.3z"/>
		</g>
		<g>
		</g>
	</g>
</g>
<g>
	<path class="st0" d="M115,109.4H31c-2.3,0-4.1-1.6-4.1-3.6V49c0-2,1.9-3.6,4.1-3.6h84c2.3,0,4.1,1.6,4.1,3.6v56.9
		C119.2,107.8,117.3,109.4,115,109.4z M112.2,104.6H33.8c-0.7,0-1.3-0.5-1.3-1.2V51.4c0-0.6,0.6-1.2,1.3-1.2h78.4
		c0.7,0,1.3,0.5,1.3,1.2v52.1C113.6,104.1,113,104.6,112.2,104.6z M35.2,102.3h75.7V52.5H35.2V102.3z"/>
	<g id="XMLID_120_">
		<g>
			<path class="st2" d="M116.5,49v56.9c0,0.7-0.7,1.3-1.5,1.3H31c-0.8,0-1.5-0.6-1.5-1.3V49c0-0.7,0.7-1.3,1.5-1.3h84
				C115.8,47.7,116.5,48.3,116.5,49z"/>
		</g>
		<g>
		</g>
	</g>
</g>
<circle class="st3" cx="73" cy="28.3" r="20.2"/>
<rect x="58.1" y="15.6" class="st4" width="35.2" height="27.2"/>
<text transform="matrix(1 0 0 1 58.0559 39.8682)" class="st0 st5 st6">24</text>
<circle class="st3" cx="101.4" cy="46.8" r="16.8"/>
<rect x="94.6" y="35" class="st4" width="17.6" height="27.2"/>
<text transform="matrix(1 0 0 1 94.5947 59.2039)" class="st0 st5 st6">7</text>
<circle class="st7" cx="75.7" cy="61.8" r="15.1"/>
<g>
	<g id="XMLID_122_">
		<g>
			<path class="st0" d="M83.3,60.6c0.3,0.2,0.5,0.5,0.5,0.8c0,0.3-0.2,0.6-0.5,0.8L71.5,69c-0.1,0.1-0.3,0.1-0.5,0.1
				c-0.2,0-0.3,0-0.5-0.1c-0.3-0.2-0.5-0.5-0.5-0.8V54.6c0-0.3,0.2-0.6,0.5-0.8c0.3-0.2,0.6-0.2,0.9,0L83.3,60.6z M71.9,66.7
				l9.1-5.2l-9.1-5.2V66.7z"/>
			<polygon class="st0" points="81,61.4 71.9,66.7 71.9,56.2 			"/>
		</g>
		<g>
		</g>
	</g>
</g>
</svg>
