<?xml version="1.0" encoding="utf-8"?>
<!-- Generator: Adobe Illustrator 24.0.1, SVG Export Plug-In . SVG Version: 6.00 Build 0)  -->
<svg version="1.1" id="Capa_1" xmlns="http://www.w3.org/2000/svg" xmlns:xlink="http://www.w3.org/1999/xlink" x="0px" y="0px"
	 viewBox="0 0 148 124" style="enable-background:new 0 0 148 124;" xml:space="preserve">
<style type="text/css">
	.st0{fill:#312C29;}
	.st1{fill:#C9135D;}
	.st2{fill:#FFFFFF;}
	.st3{fill:#FB6520;}
	.st4{fill:#FFFFFF;stroke:#312C29;stroke-width:3;stroke-miterlimit:10;}
	.st5{fill:none;}
	.st6{font-family:'FuturaBT-BoldCondensed';}
	.st7{font-size:32px;}
</style>
<g>
	<path class="st0" d="M115.9,68.7c2-2.5,2-6,0-8.5l-2.2-2.7c-0.8-1.1-1.1-2.5-0.7-3.8l1-3.3c0.9-3.1-0.5-6.3-3.3-7.9l-3-1.7
		c-1.2-0.6-2-1.8-2.1-3.2l-0.4-3.4c-0.3-3.2-2.8-5.7-6-6l-3.4-0.4c-1.3-0.1-2.5-0.9-3.2-2.1l-1.7-3c-1.5-2.8-4.8-4.2-7.9-3.3l-3.3,1
		c-1.3,0.4-2.7,0.1-3.8-0.7l-2.7-2.2c-2.5-2-6-2-8.5,0l-2.7,2.2c-1.1,0.8-2.5,1.1-3.8,0.7l-3.3-1c-3.1-0.9-6.3,0.5-7.9,3.3l-1.7,3
		c-0.6,1.2-1.8,2-3.2,2.1l-3.4,0.4c-3.2,0.3-5.7,2.8-6,6l-0.4,3.4c-0.1,1.3-0.9,2.5-2.1,3.2l-3,1.7c-2.8,1.5-4.2,4.8-3.3,7.9l1,3.3
		c0.4,1.3,0.1,2.7-0.7,3.8l-2.2,2.7c-2,2.5-2,6,0,8.5l2.2,2.7c0.8,1.1,1.1,2.5,0.7,3.8l-1,3.3c-0.9,3.1,0.5,6.3,3.3,7.9l3,1.7
		c1.2,0.6,2,1.8,2.1,3.2l0.4,3.4c0.3,3.2,2.8,5.7,6,6l3.4,0.4c1.3,0.1,2.5,0.9,3.2,2.1l1.7,3c1.5,2.8,4.8,4.2,7.9,3.3l3.3-1
		c1.3-0.4,2.7-0.1,3.8,0.7l2.7,2.2c2.5,2,6,2,8.5,0l2.7-2.2c1.1-0.8,2.5-1.1,3.8-0.7l3.3,1c3.1,0.9,6.3-0.5,7.9-3.3l1.7-3
		c0.6-1.2,1.8-2,3.2-2.1l3.4-0.4c3.2-0.3,5.7-2.8,6-6l0.4-3.4c0.1-1.3,0.9-2.5,2.1-3.2l3-1.7c2.8-1.5,4.2-4.8,3.3-7.9l-1-3.3
		c-0.4-1.3-0.1-2.7,0.7-3.8L115.9,68.7z"/>
	<g id="XMLID_103_">
		<g>
			<path class="st1" d="M113.8,61.8c1.2,1.5,1.2,3.7,0,5.2l-2.2,2.7c-1.4,1.7-1.8,4-1.2,6.2l1,3.3c0.6,1.9-0.3,3.9-2,4.8l-3,1.7
				c-1.9,1.1-3.3,3-3.5,5.2l-0.4,3.4c-0.2,1.9-1.7,3.5-3.7,3.7l-3.4,0.4c-2.2,0.2-4.2,1.5-5.2,3.5l-1.7,3c-0.9,1.7-2.9,2.5-4.8,2
				l-3.3-1c-2.1-0.6-4.4-0.2-6.2,1.2l-2.7,2.2c-1.5,1.2-3.7,1.2-5.2,0l-2.7-2.2c-1.7-1.4-4-1.8-6.1-1.2l-3.3,1
				c-1.9,0.6-3.9-0.3-4.8-2l-1.7-3c-1.1-1.9-3-3.3-5.2-3.5L39,98c-1.9-0.2-3.5-1.7-3.7-3.7l-0.4-3.4c-0.2-2.2-1.5-4.2-3.5-5.2
				l-3-1.7c-1.7-0.9-2.5-2.9-2-4.8l1-3.3c0.6-2.1,0.2-4.4-1.2-6.2L24,67c-1.2-1.5-1.2-3.7,0-5.2l2.2-2.7c1.4-1.7,1.8-4,1.2-6.2
				l-1-3.3c-0.5-1.9,0.3-3.9,2-4.8l3-1.7c2-1.1,3.3-3,3.5-5.2l0.4-3.5c0.2-1.9,1.7-3.5,3.7-3.7l3.5-0.4c2.2-0.2,4.1-1.5,5.2-3.5
				l1.7-3c0.9-1.7,2.9-2.5,4.8-2l3.3,1c2.1,0.6,4.4,0.2,6.2-1.2l2.7-2.2c1.5-1.2,3.7-1.2,5.2,0l2.7,2.2c1.7,1.4,4,1.8,6.2,1.2l3.3-1
				c1.9-0.5,3.9,0.3,4.8,2l1.7,3c1.1,1.9,3,3.3,5.2,3.5l3.4,0.4c1.9,0.2,3.5,1.7,3.7,3.7l0.4,3.5c0.3,2.2,1.6,4.2,3.5,5.2l3,1.7
				c1.7,0.9,2.5,2.9,2,4.8l-1,3.3c-0.6,2.1-0.2,4.4,1.2,6.2L113.8,61.8z"/>
		</g>
		<g>
		</g>
	</g>
	<path class="st0" d="M68.4,25.8c-21.6,0-39.1,17.5-39.1,39.1S46.8,104,68.4,104s39.1-17.5,39.1-39.1C107.5,43.3,90,25.8,68.4,25.8z
		"/>
	<g id="XMLID_104_">
		<g>
			<path class="st2" d="M68.4,28.6c20,0,36.3,16.2,36.3,36.3c0,20-16.2,36.2-36.3,36.3c-20,0-36.3-16.2-36.3-36.3
				C32.1,44.9,48.3,28.6,68.4,28.6z"/>
		</g>
		<g>
		</g>
	</g>
	<path class="st0" d="M88,45.6c-0.4,0-0.7,0.1-0.9,0.4L64,69.1L50.7,55.8c-0.5-0.5-1.3-0.5-1.9,0l-5.4,5.4c-0.5,0.5-0.5,1.4,0,1.9
		l19.6,19.6c0.5,0.5,1.4,0.5,1.9,0c0,0,0,0,0,0l29.4-29.4c0.5-0.5,0.5-1.4,0-1.9L89,46C88.7,45.8,88.4,45.6,88,45.6L88,45.6z"/>
	<g id="XMLID_105_">
		<g>
			<path class="st3" d="M91.5,52.3L64,79.8L46.3,62.1l3.5-3.5l13.3,13.3c0.5,0.5,1.4,0.5,1.9,0L88,48.8L91.5,52.3z"/>
		</g>
		<g>
		</g>
	</g>
</g>
<circle class="st4" cx="106.1" cy="28.6" r="20.2"/>
<rect x="99.1" y="15.9" class="st5" width="15.6" height="27.2"/>
<text transform="matrix(1 0 0 1 99.1072 40.1493)" class="st0 st6 st7">3</text>
</svg>
