<?xml version="1.0" encoding="utf-8"?>
<!-- Generator: Adobe Illustrator 24.0.1, SVG Export Plug-In . SVG Version: 6.00 Build 0)  -->
<svg version="1.1" id="Capa_1" xmlns="http://www.w3.org/2000/svg" xmlns:xlink="http://www.w3.org/1999/xlink" x="0px" y="0px"
	 viewBox="0 0 148 124" style="enable-background:new 0 0 148 124;" xml:space="preserve">
<style type="text/css">
	.st0{fill:#312C29;}
	.st1{fill:#C9135D;}
	.st2{fill:#FFFFFF;}
	.st3{fill:#FB6520;}
	.st4{fill:#FFFFFF;stroke:#312C29;stroke-width:1.75;stroke-miterlimit:10;}
</style>
<g>
	<path class="st0" d="M54.9,81.4h7.8c0.6,0,1.1-0.6,1.1-1.4c0-0.8-0.5-1.4-1.1-1.4h-7.8c-3,0-5.4-2.9-5.4-6.5V53.6
		c0-0.8-0.5-1.4-1.1-1.4s-1.1,0.6-1.1,1.4v18.6C47.2,77.3,50.7,81.4,54.9,81.4z"/>
</g>
<g>
	<path class="st0" d="M116.5,115.6H61.9c-1.5,0-2.7-1.1-2.7-2.4V74.9c0-1.3,1.2-2.4,2.7-2.4h54.5c1.5,0,2.7,1.1,2.7,2.4v38.4
		C119.1,114.6,117.9,115.6,116.5,115.6z M114.6,112.4H63.7c-0.5,0-0.9-0.3-0.9-0.8V76.5c0-0.4,0.4-0.8,0.9-0.8h50.9
		c0.5,0,0.9,0.3,0.9,0.8v35.1C115.5,112.1,115.1,112.4,114.6,112.4z M64.6,110.9h49.2V77.3H64.6V110.9z"/>
	<g id="XMLID_118_">
		<g>
			<path class="st1" d="M117.4,74.9v38.3c0,0.5-0.4,0.8-0.9,0.8H61.9c-0.5,0-0.9-0.4-0.9-0.8V74.9c0-0.5,0.4-0.8,0.9-0.8h54.5
				C117,74.1,117.4,74.4,117.4,74.9z"/>
		</g>
		<g>
		</g>
	</g>
</g>
<g>
	<path class="st0" d="M113,112.1H65.4c-1.3,0-2.3-0.9-2.3-2v-32c0-1.1,1.1-2,2.3-2H113c1.3,0,2.3,0.9,2.3,2v32
		C115.3,111.2,114.3,112.1,113,112.1z M111.4,109.4H67c-0.4,0-0.8-0.3-0.8-0.6V79.4c0-0.4,0.3-0.6,0.8-0.6h44.4
		c0.4,0,0.8,0.3,0.8,0.6v29.3C112.1,109.1,111.8,109.4,111.4,109.4z M67.8,108.1h42.9v-28H67.8V108.1z"/>
	<g id="XMLID_117_">
		<g>
			<path class="st2" d="M113.8,78.1v32c0,0.4-0.4,0.7-0.8,0.7H65.4c-0.5,0-0.8-0.3-0.8-0.7v-32c0-0.4,0.4-0.7,0.8-0.7H113
				C113.4,77.4,113.8,77.7,113.8,78.1z"/>
		</g>
		<g>
		</g>
	</g>
</g>
<g>
	<path class="st0" d="M81.2,53.5H26.7c-1.5,0-2.7-1.1-2.7-2.4V12.8c0-1.3,1.2-2.4,2.7-2.4h54.5c1.5,0,2.7,1.1,2.7,2.4v38.4
		C83.9,52.4,82.7,53.5,81.2,53.5z M79.4,50.3H28.5c-0.5,0-0.9-0.3-0.9-0.8V14.4c0-0.4,0.4-0.8,0.9-0.8h50.9c0.5,0,0.9,0.3,0.9,0.8
		v35.1C80.3,49.9,79.9,50.3,79.4,50.3z M29.4,48.7h49.2V15.1H29.4V48.7z"/>
	<g id="XMLID_116_">
		<g>
			<path class="st3" d="M82.2,12.8v38.4c0,0.5-0.4,0.8-0.9,0.8H26.7c-0.5,0-1-0.4-1-0.8V12.8c0-0.5,0.4-0.8,1-0.8h54.5
				C81.8,11.9,82.2,12.3,82.2,12.8z"/>
		</g>
		<g>
		</g>
	</g>
</g>
<g>
	<path class="st0" d="M77.5,49.9H30c-1.3,0-2.3-0.9-2.3-2v-32c0-1.1,1.1-2,2.3-2h47.6c1.3,0,2.3,0.9,2.3,2v32
		C79.9,49,78.8,49.9,77.5,49.9z M75.9,47.2H31.6c-0.4,0-0.8-0.3-0.8-0.6V17.3c0-0.4,0.3-0.6,0.8-0.6h44.4c0.4,0,0.8,0.3,0.8,0.6
		v29.3C76.7,46.9,76.4,47.2,75.9,47.2z M32.3,45.9h42.9v-28H32.3V45.9z"/>
	<g id="XMLID_115_">
		<g>
			<path class="st2" d="M78.4,15.9v32c0,0.4-0.4,0.7-0.8,0.7H30c-0.5,0-0.8-0.3-0.8-0.7v-32c0-0.4,0.4-0.7,0.8-0.7h47.6
				C78,15.2,78.4,15.5,78.4,15.9z"/>
		</g>
		<g>
		</g>
	</g>
</g>
<circle class="st4" cx="87.9" cy="61.9" r="16.4"/>
<g>
	<path class="st0" d="M87.4,69.3c0.3-0.3,0.7-0.3,1,0l0,0c0.3,0.3,0.3,0.7,0,1l0,0c-0.3,0.3-0.7,0.3-1,0l0,0
		C87.1,70,87.1,69.5,87.4,69.3z"/>
</g>
<g>
	<path class="st0" d="M76.5,60c-0.3-0.3-0.3-0.7,0-1c6.3-6.3,16.7-6.4,23,0c0.3,0.3,0.3,0.7,0,1c-0.3,0.3-0.7,0.3-1,0
		c-5.8-5.8-15.3-5.8-21.1,0C77.2,60.2,76.7,60.2,76.5,60z"/>
</g>
<g>
	<path class="st0" d="M79.2,62.7c-0.3-0.3-0.3-0.7,0-1c4.8-4.8,12.7-4.9,17.5,0c0.3,0.3,0.3,0.7,0,1c-0.3,0.3-0.7,0.3-1,0
		c-4.3-4.3-11.3-4.3-15.6,0C79.9,63,79.5,63,79.2,62.7z"/>
</g>
<g>
	<path class="st0" d="M81.9,65.4c-0.3-0.3-0.3-0.7,0-1c3.3-3.3,8.7-3.3,12.1,0c0.3,0.3,0.3,0.7,0,1c-0.3,0.3-0.7,0.3-1,0
		c-2.8-2.8-7.3-2.8-10.2,0C82.6,65.7,82.2,65.7,81.9,65.4z"/>
</g>
<g>
	<path class="st0" d="M84.6,68.2c-0.3-0.3-0.3-0.7,0-1c1.8-1.8,4.8-1.8,6.6,0c0.3,0.3,0.3,0.7,0,1c-0.3,0.3-0.7,0.3-1,0
		c-1.3-1.3-3.4-1.3-4.7,0C85.3,68.4,84.9,68.4,84.6,68.2z"/>
</g>
<path class="st0" d="M39.6,62.9"/>
</svg>
