<?xml version="1.0" encoding="utf-8"?>
<!-- Generator: Adobe Illustrator 24.0.1, SVG Export Plug-In . SVG Version: 6.00 Build 0)  -->
<svg version="1.1" id="Capa_1" xmlns="http://www.w3.org/2000/svg" xmlns:xlink="http://www.w3.org/1999/xlink" x="0px" y="0px"
	 viewBox="0 0 148 124" style="enable-background:new 0 0 148 124;" xml:space="preserve">
<style type="text/css">
	.st0{fill:#312C29;}
	.st1{fill:#FFFFFF;}
	.st2{fill:#C9135D;}
	.st3{fill:#FB6520;}
</style>
<g>
	<path class="st0" d="M124.2,110.3H26.8c-2.7,0-4.8-1.8-4.8-4.1V40.2c0-2.3,2.2-4.1,4.8-4.1h97.4c2.7,0,4.8,1.8,4.8,4.1v65.9
		C129,108.4,126.8,110.3,124.2,110.3z M120.9,104.7H30.1c-0.9,0-1.6-0.6-1.6-1.3V43c0-0.7,0.7-1.3,1.6-1.3h90.9
		c0.9,0,1.6,0.6,1.6,1.3v60.4C122.5,104.1,121.8,104.7,120.9,104.7z M31.6,102.1h87.8V44.4H31.6V102.1z"/>
	<g id="XMLID_114_">
		<g>
			<path class="st1" d="M125.9,40.2v65.9c0,0.8-0.8,1.4-1.7,1.4H26.8c-0.9,0-1.7-0.6-1.7-1.4V40.2c0-0.8,0.8-1.4,1.7-1.4h97.4
				C125.1,38.8,125.9,39.4,125.9,40.2z"/>
		</g>
		<g>
		</g>
	</g>
</g>
<g>
	<path class="st0" d="M119.1,105.4H31.9c-2.4,0-4.3-1.6-4.3-3.6V44.9c0-2,1.9-3.6,4.3-3.6h87.2c2.4,0,4.3,1.6,4.3,3.6v56.9
		C123.5,103.8,121.5,105.4,119.1,105.4z M116.2,100.6H34.8c-0.8,0-1.4-0.5-1.4-1.2V47.3c0-0.6,0.6-1.2,1.4-1.2h81.4
		c0.8,0,1.4,0.5,1.4,1.2v52.1C117.6,100.1,117,100.6,116.2,100.6z M36.2,98.3h78.6V48.5H36.2V98.3z"/>
	<g id="XMLID_113_">
		<g>
			<path class="st1" d="M120.7,44.9v56.9c0,0.7-0.7,1.3-1.5,1.3H31.9c-0.8,0-1.5-0.6-1.5-1.3V44.9c0-0.7,0.7-1.3,1.5-1.3h87.2
				C120,43.7,120.7,44.2,120.7,44.9z"/>
		</g>
		<g>
		</g>
	</g>
</g>
<g id="XMLID_107_">
	<g>
		<path class="st2" d="M73.5,49.8c13.1,0,23.6,10.6,23.6,23.6S86.5,97,73.5,97c-13,0-23.6-10.6-23.6-23.6S60.5,49.8,73.5,49.8z"/>
	</g>
	<g>
	</g>
</g>
<g>
	<g id="XMLID_106_">
		<g>
			<path class="st1" d="M74.7,63.4v18.2h4c0.4,0,0.7,0.3,0.7,0.7v1c0,0.4-0.3,0.7-0.7,0.7h-5.6c-0.4,0-0.7-0.3-0.7-0.7V63.4
				c0-0.3,0.3-0.6,0.6-0.6h1.1C74.4,62.8,74.7,63.1,74.7,63.4z"/>
			<path class="st1" d="M68.8,65.9c0,1.6-1.3,2.8-2.8,2.8s-2.8-1.3-2.8-2.8c0-1.6,1.3-2.8,2.8-2.8C67.5,63,68.8,64.3,68.8,65.9z"/>
			<path class="st1" d="M61,85.9c10.7,10.7,29.1,3.8,30.2-11.3H79.6c-0.4,0-0.7-0.3-0.7-0.7V73c0-0.4,0.3-0.7,0.7-0.7h12.9
				c0.5,0,1,0.3,1,1.1c0,11-8.8,20-20,20c-11.1,0-20-9-20-20c0-10.7,8.6-20.2,20.5-20c0.3,0,0.6,0.3,0.6,0.6v1.1
				c0,0.3-0.3,0.6-0.6,0.6C57.2,55.6,50.1,75.1,61,85.9z"/>
		</g>
		<g>
		</g>
	</g>
</g>
<g>
	<path class="st0" d="M69,9.7l9.9,0c0.5,0,0.9,0.4,0.9,0.9l0,23.9l4.1,0c0.4,0,0.7,0.2,0.8,0.5c0.1,0.3,0.1,0.7-0.2,0.9l-9.9,10.3
		c-0.3,0.3-1,0.3-1.3,0l-9.9-10.2c-0.2-0.3-0.3-0.6-0.2-0.9s0.5-0.5,0.8-0.5l4.1,0l0-23.9C68.1,10.1,68.5,9.7,69,9.7z"/>
	<g id="XMLID_119_">
		<g>
			<path class="st3" d="M73.9,44.3l-7.9-8.1l2.9,0c0.5,0,0.9-0.4,0.9-0.9l0-23.9l8.1,0l0,23.9c0,0.5,0.4,0.9,0.9,0.9l2.9,0
				L73.9,44.3z"/>
		</g>
		<g>
		</g>
	</g>
</g>
</svg>
