<?xml version="1.0" encoding="utf-8"?>
<!-- Generator: Adobe Illustrator 24.0.1, SVG Export Plug-In . SVG Version: 6.00 Build 0)  -->
<svg version="1.1" id="Capa_1" xmlns="http://www.w3.org/2000/svg" xmlns:xlink="http://www.w3.org/1999/xlink" x="0px" y="0px"
	 viewBox="0 0 148 124" style="enable-background:new 0 0 148 124;" xml:space="preserve">
<style type="text/css">
	.st0{fill:#312C29;}
	.st1{fill:#C9135D;}
	.st2{fill:#FB6520;}
	.st3{fill:#FFFFFF;}
</style>
<g>
	<path class="st0" d="M120.2,86.7H26.4c-2.6,0-4.6-1.8-4.6-4.1V16.7c0-2.3,2.1-4.1,4.6-4.1h93.8c2.6,0,4.6,1.8,4.6,4.1v65.9
		C124.8,84.9,122.8,86.7,120.2,86.7z M117.1,81.2H29.6c-0.8,0-1.5-0.6-1.5-1.3V19.5c0-0.7,0.7-1.3,1.5-1.3h87.5
		c0.8,0,1.5,0.6,1.5,1.3v60.4C118.6,80.6,117.9,81.2,117.1,81.2z M31.1,78.5h84.5V20.8H31.1V78.5z"/>
	<g id="XMLID_109_">
		<g>
			<path class="st1" d="M121.8,16.7v65.9c0,0.8-0.7,1.5-1.6,1.5H26.4c-0.9,0-1.6-0.7-1.6-1.5V16.7c0-0.8,0.7-1.4,1.6-1.4h93.8
				C121.1,15.2,121.8,15.9,121.8,16.7z"/>
		</g>
		<g>
		</g>
	</g>
</g>
<g>
	<path class="st0" d="M88.5,111.4H58.2c-0.5,0-1-0.3-1.3-0.7c-0.3-0.4-0.3-1-0.1-1.4L62.5,97c0.2-0.5,0.8-0.9,1.4-0.9h19
		c0.6,0,1.1,0.3,1.4,0.9l5.7,12.3c0.2,0.5,0.2,1-0.1,1.4C89.5,111.2,89,111.4,88.5,111.4z"/>
	<g id="XMLID_112_">
		<g>
			<polygon class="st2" points="81.9,99.2 86.2,108.4 60.5,108.4 64.8,99.2 			"/>
		</g>
		<g>
		</g>
	</g>
</g>
<g>
	<path class="st0" d="M115.3,81.8h-84c-2.3,0-4.1-1.6-4.1-3.6V21.4c0-2,1.9-3.6,4.1-3.6h84c2.3,0,4.1,1.6,4.1,3.6v56.9
		C119.5,80.2,117.6,81.8,115.3,81.8z M112.5,77H34.2c-0.7,0-1.3-0.5-1.3-1.2V23.8c0-0.6,0.6-1.2,1.3-1.2h78.4c0.7,0,1.3,0.5,1.3,1.2
		v52.1C113.9,76.5,113.3,77,112.5,77z M35.5,74.7h75.7V24.9H35.5V74.7z"/>
	<g id="XMLID_110_">
		<g>
			<path class="st3" d="M116.8,21.4v56.9c0,0.7-0.7,1.3-1.5,1.3h-84c-0.8,0-1.5-0.6-1.5-1.3V21.4c0-0.7,0.7-1.3,1.5-1.3h84
				C116.1,20.1,116.8,20.7,116.8,21.4z"/>
		</g>
		<g>
		</g>
	</g>
</g>
<g>
	<path class="st0" d="M73.3,96.9c-0.4,0-0.8-0.2-1.1-0.5L55.5,78.7c-0.4-0.4-0.5-1.1-0.3-1.6c0.2-0.5,0.8-0.9,1.4-0.9h6.9V34.6
		c0-0.8,0.7-1.5,1.5-1.5h16.7c0.8,0,1.5,0.7,1.5,1.5v41.5h6.9c0.6,0,1.1,0.4,1.4,0.9c0.2,0.5,0.1,1.2-0.3,1.6L74.4,96.5
		C74.2,96.8,73.8,96.9,73.3,96.9z"/>
	<g id="XMLID_111_">
		<g>
			<path class="st3" d="M86.6,79.1L73.3,93.3L60.1,79.1h5c0.8,0,1.5-0.7,1.5-1.5V36.1h13.7v41.5c0,0.8,0.7,1.5,1.5,1.5H86.6z"/>
		</g>
		<g>
		</g>
	</g>
</g>
</svg>
