<?xml version="1.0" encoding="utf-8"?>
<!-- Generator: Adobe Illustrator 24.0.1, SVG Export Plug-In . SVG Version: 6.00 Build 0)  -->
<svg version="1.1" id="Capa_1" xmlns="http://www.w3.org/2000/svg" xmlns:xlink="http://www.w3.org/1999/xlink" x="0px" y="0px"
	 viewBox="0 0 148 124" style="enable-background:new 0 0 148 124;" xml:space="preserve">
<style type="text/css">
	.st0{fill:#312C29;}
	.st1{fill:#FB6520;}
	.st2{fill:#FFFFFF;stroke:#312C29;stroke-width:2;stroke-miterlimit:10;}
	.st3{fill:#C9135D;}
</style>
<g>
	<path class="st0" d="M46.1,45.2c-9.8,0-17.8-8-17.8-17.8c0-3.4,1-6.7,2.8-9.5c0.7-1.1,2.1-1.4,3.2-0.7c1.1,0.7,1.4,2.2,0.7,3.2
		c-1.3,2.1-2,4.5-2,7c0,7.2,5.9,13.1,13.1,13.1c7.2,0,13.1-5.9,13.1-13.1s-5.9-13.1-13.1-13.1c-1.3,0-2.4-1.1-2.4-2.4
		s1.1-2.4,2.4-2.4c9.8,0,17.8,8,17.8,17.8S55.9,45.2,46.1,45.2z"/>
</g>
<g>
	<path class="st0" d="M38.1,28.7c-0.9,0-1.7-0.5-2.1-1.3l-3.4-7.1l-7.1,3.4c-1.2,0.6-2.6,0.1-3.1-1.1c-0.6-1.2-0.1-2.6,1.1-3.1
		l9.3-4.4c0.6-0.3,1.2-0.3,1.8-0.1c0.6,0.2,1.1,0.6,1.3,1.2l4.4,9.3c0.6,1.2,0.1,2.6-1.1,3.1C38.8,28.6,38.5,28.7,38.1,28.7z"/>
</g>
<g>
	<path class="st0" d="M81.9,112.5c-22.2,0-40.2-18-40.2-40.2c0-22.2,18-40.2,40.2-40.2c22.2,0,40.2,18,40.2,40.2
		C122.1,94.5,104,112.5,81.9,112.5z M82.2,106c-18.8,0-34.1-15.3-34.1-34.1c0-18.8,15.3-34.1,34.1-34.1c18.8,0,34.1,15.3,34.1,34.1
		C116.3,90.7,101,106,82.2,106z M82.2,40.3c-17.4,0-31.6,14.2-31.6,31.6s14.2,31.6,31.6,31.6c17.4,0,31.6-14.2,31.6-31.6
		S99.6,40.3,82.2,40.3z"/>
	<g id="XMLID_129_">
		<g>
			<path class="st1" d="M81.9,34.4c20.9,0,37.8,17,37.8,37.8c0,20.9-17,37.8-37.8,37.8C61,110.1,44,93.2,44,72.3
				C44,51.4,61,34.4,81.9,34.4z"/>
		</g>
		<g>
		</g>
	</g>
</g>
<circle class="st2" cx="82.3" cy="72.3" r="33.3"/>
<g>
	<path class="st0" d="M82.3,97.8c-13.7,0-24.9-11.2-24.9-24.9c0-5.2,1.6-10.1,4.6-14.3c0.2-0.3,0.5-0.4,0.8-0.5
		c0.3-0.1,0.6,0,0.9,0.2l6.5,4.6c0.3,0.2,0.4,0.5,0.5,0.8c0.1,0.3,0,0.6-0.2,0.9c-1.7,2.5-2.7,5.4-2.7,8.4c0,8,6.5,14.6,14.6,14.6
		c8,0,14.6-6.5,14.6-14.6c0-3-0.9-5.9-2.7-8.4C94,64.3,94,64,94,63.7c0.1-0.3,0.2-0.6,0.5-0.8l6.5-4.6c0.3-0.2,0.6-0.3,0.9-0.2
		c0.3,0.1,0.6,0.2,0.8,0.5c3,4.2,4.6,9.2,4.6,14.3C107.2,86.7,96,97.8,82.3,97.8z"/>
	<g id="XMLID_128_">
		<g>
			<path class="st3" d="M101.4,61c2.3,3.6,3.5,7.7,3.5,12c0,12.4-10.1,22.5-22.5,22.5c-12.4,0-22.5-10.1-22.5-22.5
				c0-4.3,1.2-8.4,3.5-12l4.5,3.2c-1.6,2.6-2.4,5.6-2.4,8.7c0,9.3,7.6,16.9,16.9,16.9c9.3,0,16.9-7.6,16.9-16.9
				c0-3.1-0.8-6.1-2.4-8.7L101.4,61z"/>
		</g>
		<g>
		</g>
	</g>
</g>
<g>
	<g id="XMLID_125_">
		<g>
			<rect x="79.6" y="53.7" class="st3" width="5.6" height="18.1"/>
			<path class="st0" d="M85.1,53.7h-5.6v18.1h5.6V53.7z M78.4,51.3h7.9c0.7,0,1.2,0.5,1.2,1.2V73c0,0.7-0.5,1.2-1.2,1.2h-7.9
				c-0.7,0-1.2-0.5-1.2-1.2V52.5C77.2,51.8,77.7,51.3,78.4,51.3z"/>
		</g>
		<g>
		</g>
	</g>
</g>
</svg>
